<svg width="100" height="100" viewBox="0 0 100 100" fill="none" xmlns="http://www.w3.org/2000/svg">
  <ellipse cx="50" cy="35" rx="30" ry="18" fill="#606060" stroke="#404040" stroke-width="2"/>
  <ellipse cx="35" cy="30" rx="25" ry="15" fill="#808080" stroke="#404040" stroke-width="1"/>
  <ellipse cx="65" cy="30" rx="20" ry="12" fill="#909090" stroke="#404040" stroke-width="1"/>
  <g stroke="#FFD700" stroke-width="2" stroke-linecap="round">
    <line x1="35" y1="55" x2="32" y2="65"/>
    <line x1="45" y1="60" x2="42" y2="70"/>
    <line x1="55" y1="55" x2="52" y2="65"/>
    <line x1="65" y1="60" x2="62" y2="70"/>
  </g>
  <g stroke="#FFD700" stroke-width="1.5" stroke-linecap="round">
    <path d="M30 68 L32 72 L34 68 L36 72"/>
    <path d="M40 73 L42 77 L44 73 L46 77"/>
    <path d="M50 68 L52 72 L54 68 L56 72"/>
    <path d="M60 73 L62 77 L64 73 L66 77"/>
  </g>
</svg>